<svg xmlns="http://www.w3.org/2000/svg" version="1.1" xmlns:xlink="http://www.w3.org/1999/xlink" xmlns:svgjs="http://svgjs.dev/svgjs" width="1000" height="1000" viewBox="0 0 1000 1000"><rect width="1000" height="1000" fill="#000000"></rect><g transform="matrix(0.7,0,0,0.7,149.90044910179654,149.90044910179637)"><svg viewBox="0 0 334 334" data-background-color="#ffffff" preserveAspectRatio="xMidYMid meet" height="1000" width="1000" xmlns="http://www.w3.org/2000/svg" xmlns:xlink="http://www.w3.org/1999/xlink"><g id="tight-bounds" transform="matrix(1,0,0,1,0.04749999999998522,0.04750000000001364)"><svg viewBox="0 0 333.90454557049503 333.90454557049503" height="333.90454557049503" width="333.90454557049503"><g><svg></svg></g><g><svg viewBox="0 0 333.90454557049503 333.90454557049503" height="333.90454557049503" width="333.90454557049503"><g><path d="M0 166.952c0-92.205 74.747-166.952 166.952-166.952 92.205 0 166.952 74.747 166.953 166.952 0 92.205-74.747 166.952-166.953 166.953-92.205 0-166.952-74.747-166.952-166.953zM166.952 328.719c89.341 0 161.767-72.425 161.767-161.767 0-89.341-72.425-161.767-161.767-161.767-89.341 0-161.767 72.425-161.767 161.767 0 89.341 72.425 161.767 161.767 161.767z" data-fill-palette-color="tertiary" fill="#551e19" stroke="transparent"></path><ellipse rx="160.27418187383762" ry="160.27418187383762" cx="166.95227278524752" cy="166.95227278524752" fill="#551e19" stroke="transparent" stroke-width="0" fill-opacity="1" data-fill-palette-color="tertiary"></ellipse></g><g transform="matrix(1,0,0,1,89.60105892062776,71.17305217166896)"><svg viewBox="0 0 154.7024277292395 191.55844122715712" height="191.55844122715712" width="154.7024277292395"><g><svg viewBox="0 0 154.7024277292395 191.55844122715712" height="191.55844122715712" width="154.7024277292395"><g><svg viewBox="0 0 213.1584412271571 263.9409047112665" height="191.55844122715712" width="154.7024277292395"><g transform="matrix(1,0,0,1,0,150.4358544195117)"><svg viewBox="0 0 213.1584412271571 113.50505029175477" height="113.50505029175477" width="213.1584412271571"><g><svg viewBox="0 0 213.1584412271571 113.50505029175477" height="113.50505029175477" width="213.1584412271571" id="textblock"><g><svg viewBox="0 0 213.1584412271571 79.22845922977604" height="79.22845922977604" width="213.1584412271571"><g transform="matrix(1,0,0,1,0,0)"><svg width="213.1584412271571" viewBox="2.299999952316284 -43.650001525878906 132.08999633789062 49.10000228881836" height="79.22845922977604" data-palette-color="#ffffff"><path d="M41.15-29.8Q41.15-25.55 38.95-22 36.75-18.45 32.55-16.2 28.35-13.95 22.55-13.55L22.55-13.55 20.4-1.5Q19.15 5.45 13.6 5.45L13.6 5.45Q10.55 5.45 7.98 3.65 5.4 1.85 3.85-1.85 2.3-5.55 2.3-10.95L2.3-10.95Q2.3-21.1 5.58-28.18 8.85-35.25 14.38-38.78 19.9-42.3 26.55-42.3L26.55-42.3Q31.25-42.3 34.52-40.65 37.8-39 39.48-36.18 41.15-33.35 41.15-29.8L41.15-29.8ZM23.45-18.7Q33.7-20 33.7-29.35L33.7-29.35Q33.7-32.65 31.53-34.73 29.35-36.8 24.8-36.8L24.8-36.8Q19.65-36.8 15.83-33.55 12-30.3 9.93-24.53 7.85-18.75 7.85-11.35L7.85-11.35Q7.85-8.25 8.47-5.85 9.1-3.45 10.08-2.13 11.05-0.8 11.95-0.8L11.95-0.8Q13.2-0.8 13.85-4.25L13.85-4.25 15.5-13.7Q13.55-14 13.8-13.95L13.8-13.95Q12.3-14.2 11.85-14.88 11.4-15.55 11.4-16.6L11.4-16.6Q11.4-17.7 12.03-18.35 12.65-19 13.75-19L13.75-19Q14.25-19 14.5-18.95L14.5-18.95Q15.7-18.75 16.35-18.7L16.35-18.7Q17-22.6 18.2-29.15L18.2-29.15Q18.5-30.85 19.58-31.58 20.65-32.3 22.1-32.3L22.1-32.3Q23.75-32.3 24.48-31.68 25.2-31.05 25.2-29.7L25.2-29.7Q25.2-28.9 25.1-28.4L25.1-28.4 23.45-18.7ZM46.2-26.6Q44.1-26.6 43.05-27.58 42-28.55 42-30.3L42-30.3Q42-32.05 43.37-33.23 44.75-34.4 46.8-34.4L46.8-34.4Q48.65-34.4 49.8-33.5 50.95-32.6 50.95-30.95L50.95-30.95Q50.95-28.95 49.65-27.78 48.35-26.6 46.2-26.6L46.2-26.6ZM45.8 0.25Q42.55 0.25 41.07-2.05 39.6-4.35 39.6-8.15L39.6-8.15Q39.6-10.4 40.17-13.93 40.75-17.45 41.65-20.5L41.65-20.5Q42.1-22.1 42.85-22.7 43.6-23.3 45.25-23.3L45.25-23.3Q47.8-23.3 47.8-21.6L47.8-21.6Q47.8-20.35 46.85-15.8L46.85-15.8Q45.65-10.3 45.65-8.35L45.65-8.35Q45.65-6.85 46.05-6.05 46.45-5.25 47.4-5.25L47.4-5.25Q48.3-5.25 49.65-6.5 51-7.75 53.25-10.45L53.25-10.45Q53.85-11.15 54.6-11.15L54.6-11.15Q55.25-11.15 55.62-10.55 56-9.95 56-8.9L56-8.9Q56-6.9 55.05-5.8L55.05-5.8Q50.1 0.25 45.8 0.25L45.8 0.25ZM77.2-15.2Q77.34-15.25 77.7-15.25L77.7-15.25Q78.45-15.25 78.84-14.75 79.25-14.25 79.25-13.4L79.25-13.4Q79.25-11.85 78.65-10.98 78.05-10.1 76.84-9.7L76.84-9.7Q74.55-8.95 71.95-8.95L71.95-8.95Q69.75-8.95 67.8-9.55L67.8-9.55Q66.34-7.2 64.59-4.7L64.59-4.7Q62.59-1.85 61.15-0.8 59.7 0.25 57.84 0.25L57.84 0.25Q55.8 0.25 54.62-1.35 53.45-2.95 53.15-6.4L53.15-6.4Q52.55-13.4 52.55-18.65L52.55-18.65 52.55-20.4Q52.59-22.05 53.45-22.7 54.3-23.35 56-23.35L56-23.35Q57.3-23.35 57.92-22.78 58.55-22.2 58.55-20.85L58.55-20.85Q58.55-15.1 59.25-5.9L59.25-5.9Q62.25-10.35 63.75-13L63.75-13Q63-14.45 63-16.45L63-16.45Q63-18.15 63.75-19.75 64.5-21.35 65.8-22.35 67.09-23.35 68.75-23.35L68.75-23.35Q70.2-23.35 71.09-22.33 72-21.3 72-19.35L72-19.35Q72-17.1 70.8-14.2L70.8-14.2Q72.7-14.3 75.84-14.95L75.84-14.95 77.2-15.2ZM81.04 0.25Q77.94 0.25 76.09-2 74.24-4.25 74.24-7.9L74.24-7.9Q74.24-11.9 76.09-15.48 77.94-19.05 81.02-21.23 84.09-23.4 87.54-23.4L87.54-23.4Q88.64-23.4 89.02-22.98 89.39-22.55 89.64-21.45L89.64-21.45Q90.69-21.65 91.84-21.65L91.84-21.65Q94.29-21.65 94.29-19.9L94.29-19.9Q94.29-18.85 93.54-14.9L93.54-14.9Q92.39-9.15 92.39-6.9L92.39-6.9Q92.39-6.15 92.77-5.7 93.14-5.25 93.74-5.25L93.74-5.25Q94.69-5.25 96.04-6.48 97.39-7.7 99.69-10.45L99.69-10.45Q100.29-11.15 101.04-11.15L101.04-11.15Q101.69-11.15 102.07-10.55 102.44-9.95 102.44-8.9L102.44-8.9Q102.44-6.9 101.49-5.8L101.49-5.8Q99.44-3.25 97.14-1.5 94.84 0.25 92.69 0.25L92.69 0.25Q91.04 0.25 89.67-0.88 88.29-2 87.59-3.95L87.59-3.95Q84.99 0.25 81.04 0.25L81.04 0.25ZM82.84-4.8Q83.94-4.8 84.94-6.1 85.94-7.4 86.39-9.55L86.39-9.55 88.24-18.75Q86.14-18.7 84.37-17.18 82.59-15.65 81.54-13.15 80.49-10.65 80.49-7.85L80.49-7.85Q80.49-6.3 81.12-5.55 81.74-4.8 82.84-4.8L82.84-4.8ZM120.69-11.15Q121.34-11.15 121.72-10.55 122.09-9.95 122.09-8.9L122.09-8.9Q122.09-6.9 121.14-5.8L121.14-5.8Q118.99-3.15 116.44-1.45 113.89 0.25 110.59 0.25L110.59 0.25Q100.39 0.25 100.39-14.1L100.39-14.1Q100.39-16.3 100.54-18.55L100.54-18.55 98.59-18.55Q97.09-18.55 96.57-19.1 96.04-19.65 96.04-20.85L96.04-20.85Q96.04-23.65 98.29-23.65L98.29-23.65 101.14-23.65Q101.99-29.15 103.74-33.7 105.49-38.25 107.97-40.95 110.44-43.65 113.29-43.65L113.29-43.65Q115.39-43.65 116.59-41.8 117.79-39.95 117.79-37.15L117.79-37.15Q117.79-29.4 111.29-23.65L111.29-23.65 116.89-23.65Q117.69-23.65 118.04-23.3 118.39-22.95 118.39-22L118.39-22Q118.39-18.55 112.74-18.55L112.74-18.55 106.64-18.55Q106.54-16.05 106.54-14.65L106.54-14.65Q106.54-9.45 107.77-7.35 108.99-5.25 111.64-5.25L111.64-5.25Q113.79-5.25 115.44-6.55 117.09-7.85 119.34-10.45L119.34-10.45Q119.94-11.15 120.69-11.15L120.69-11.15ZM111.94-38.85Q111.19-38.85 110.27-36.98 109.34-35.1 108.52-31.78 107.69-28.45 107.14-24.4L107.14-24.4Q110.09-26.95 111.57-30.13 113.04-33.3 113.04-35.9L113.04-35.9Q113.04-38.85 111.94-38.85L111.94-38.85ZM124.59-26.6Q122.49-26.6 121.44-27.58 120.39-28.55 120.39-30.3L120.39-30.3Q120.39-32.05 121.76-33.23 123.14-34.4 125.19-34.4L125.19-34.4Q127.04-34.4 128.19-33.5 129.34-32.6 129.34-30.95L129.34-30.95Q129.34-28.95 128.04-27.78 126.74-26.6 124.59-26.6L124.59-26.6ZM124.19 0.25Q120.94 0.25 119.46-2.05 117.99-4.35 117.99-8.15L117.99-8.15Q117.99-10.4 118.56-13.93 119.14-17.45 120.04-20.5L120.04-20.5Q120.49-22.1 121.24-22.7 121.99-23.3 123.64-23.3L123.64-23.3Q126.19-23.3 126.19-21.6L126.19-21.6Q126.19-20.35 125.24-15.8L125.24-15.8Q124.04-10.3 124.04-8.35L124.04-8.35Q124.04-6.85 124.44-6.05 124.84-5.25 125.79-5.25L125.79-5.25Q126.69-5.25 128.04-6.5 129.39-7.75 131.64-10.45L131.64-10.45Q132.24-11.15 132.99-11.15L132.99-11.15Q133.64-11.15 134.01-10.55 134.39-9.95 134.39-8.9L134.39-8.9Q134.39-6.9 133.44-5.8L133.44-5.8Q128.49 0.25 124.19 0.25L124.19 0.25Z" opacity="1" transform="matrix(1,0,0,1,0,0)" fill="#ffffff" class="undefined-text-0" data-fill-palette-color="quaternary" id="text-0"></path></svg></g></svg></g><g transform="matrix(1,0,0,1,0,97.93239697090465)"><svg viewBox="0 0 213.1584412271571 15.572653320850131" height="15.572653320850131" width="213.1584412271571"><g transform="matrix(1,0,0,1,0,0)"><svg width="213.1584412271571" viewBox="4 -40.45000076293945 650.8642578125 47.54999923706055" height="15.572653320850131" data-palette-color="#ffffff"><path d="M14.85-5L21.65-5Q23.5-5 24.25-6.05 25-7.1 25-8.4L25-8.4 25-31.3Q25-32.55 24.25-33.6 23.5-34.65 21.65-34.65L21.65-34.65 9.95-34.65 9.9-2.05Q9.9-0.95 9.05-0.3 8.2 0.35 6.95 0.35L6.95 0.35Q4 0.35 4-2.05L4-2.05 4-36.7Q4-38.5 4.93-39.1 5.85-39.7 7.15-39.7L7.15-39.7 22.9-39.7Q24.2-39.7 25.6-39.15 27-38.6 28.3-37.75L28.3-37.75 28.25-37.75Q29.55-36.8 30.25-35.27 30.95-33.75 30.95-31.75L30.95-31.75 30.95-8Q30.95-3.95 28.25-1.95L28.25-1.95Q26.95-1 25.58-0.48 24.2 0.05 22.9 0.05L22.9 0.05 14.5 0.05Q13.65 0.05 13.18-0.65 12.7-1.35 12.7-2.5L12.7-2.5Q12.7-5 14.85-5L14.85-5ZM43.55-22.15L43.55-8Q43.55-6.8 44.33-5.75 45.1-4.7 46.95-4.7L46.95-4.7 53.2-4.7Q55.05-4.7 55.83-5.63 56.6-6.55 56.6-7.75L56.6-7.75 56.6-8.3Q56.6-10.65 59.35-10.65L59.35-10.65Q62.1-10.65 62.1-8.3L62.1-8.3 62.1-7.7Q62.1-5.6 61.43-4.25 60.75-2.9 59.4-1.9L59.4-1.9Q56.75 0 54.1 0L54.1 0 45.7 0Q43.05 0 40.55-1.9L40.55-1.9Q39.35-2.9 38.7-4.42 38.05-5.95 38.05-7.95L38.05-7.95 38.05-22.2Q38.05-26.25 40.55-28.2L40.55-28.2Q41.8-29.1 43.13-29.63 44.45-30.15 45.7-30.15L45.7-30.15 54.1-30.15Q55.3-30.15 56.75-29.68 58.2-29.2 59.45-28.4L59.45-28.4Q60.65-27.55 61.38-26.05 62.1-24.55 62.1-22.5L62.1-22.5 62.1-15.75Q62.1-14.6 61.43-13.7 60.75-12.8 58.95-12.8L58.95-12.8 48.15-12.8Q46.35-12.8 46.25-15.15L46.25-15.15Q46.25-17.5 48.15-17.5L48.15-17.5 56.65-17.5 56.6-22.15Q56.6-23.4 55.83-24.43 55.05-25.45 53.2-25.45L53.2-25.45 46.95-25.45Q45.1-25.45 44.33-24.43 43.55-23.4 43.55-22.15L43.55-22.15ZM77.35-17.5L84.7-17.5Q85.95-17.5 87.38-16.93 88.8-16.35 90.05-15.5L90.05-15.5 90-15.5Q91.3-14.55 92-13.05 92.7-11.55 92.7-9.45L92.7-9.45 92.7-7.95Q92.7-3.85 90-1.9L90-1.9Q88.7-0.9 87.35-0.45 86 0 84.7 0L84.7 0 76.2 0Q74.9 0 73.55-0.45 72.2-0.9 70.9-1.9L70.9-1.9Q68.2-3.8 68.2-7.95L68.2-7.95 68.2-8.55Q68.2-10.7 70.95-10.65L70.95-10.65Q73.75-10.65 73.75-8.55L73.75-8.55 73.75-8Q73.75-6.8 74.5-5.75 75.25-4.7 77.15-4.7L77.15-4.7 83.75-4.7Q85.65-4.7 86.4-5.75 87.15-6.8 87.15-8L87.15-8 87.15-9.4Q87.15-10.05 86.98-10.65 86.8-11.25 86.4-11.73 86-12.2 85.35-12.5 84.7-12.8 83.75-12.8L83.75-12.8 76.45-12.8Q73.9-12.8 71.1-14.6L71.1-14.6Q68.45-16.3 68.45-20.45L68.45-20.45 68.45-22.15Q68.45-24.15 69.15-25.68 69.85-27.2 71.15-28.15L71.15-28.15 71.1-28.15Q72.35-29 73.75-29.55 75.15-30.1 76.45-30.1L76.45-30.1 84.45-30.1Q85.75-30.1 87.13-29.55 88.5-29 89.8-28.15L89.8-28.15 89.75-28.15Q91.05-27.2 91.75-25.68 92.45-24.15 92.45-22.15L92.45-22.15 92.45-21.7Q92.45-20.65 91.75-20.18 91.05-19.7 89.7-19.65L89.7-19.65Q86.95-19.6 86.95-21.7L86.95-21.7 86.95-22.1Q86.95-23.35 86.18-24.38 85.4-25.4 83.55-25.4L83.55-25.4 77.35-25.4Q75.5-25.4 74.73-24.38 73.95-23.35 73.95-22.1L73.95-22.1 73.95-20.9Q73.95-19.6 74.73-18.55 75.5-17.5 77.35-17.5L77.35-17.5ZM104.85-27.9L104.85-2.1Q104.85 0.3 102.1 0.3L102.1 0.3Q99.3 0.3 99.3-2.1L99.3-2.1 99.3-27.9Q99.3-30.3 102.1-30.3L102.1-30.3Q104.85-30.3 104.85-27.9L104.85-27.9ZM105.9-36.6L105.9-36.6Q105.9-35 104.8-33.9 103.7-32.8 102.1-32.8L102.1-32.8Q100.5-32.8 99.38-33.9 98.25-35 98.25-36.6L98.25-36.6Q98.25-38.25 99.38-39.35 100.5-40.45 102.1-40.45L102.1-40.45Q103.7-40.45 104.8-39.35 105.9-38.25 105.9-36.6ZM125.9-3.5L119.85-3.5Q118.55-3.5 117.17-3.95 115.8-4.4 114.5-5.25L114.5-5.25Q111.8-7 111.8-11.15L111.8-11.15 111.8-22.45Q111.8-24.55 112.53-26.05 113.25-27.55 114.5-28.4L114.5-28.4Q115.8-29.2 117.15-29.65 118.5-30.1 119.8-30.1L119.8-30.1 128.2-30.1Q129.45-30.1 130.8-29.55 132.15-29 133.3-28.15L133.3-28.15Q134.45-27.2 135.15-25.65 135.85-24.1 135.85-22.15L135.85-22.15 135.85-0.95Q135.85 1.15 135.18 2.63 134.5 4.1 133.3 5.1L133.3 5.1Q132.15 6.05 130.82 6.58 129.5 7.1 128.2 7.1L128.2 7.1 119.8 7.1Q117.15 7.1 114.45 5.55L114.45 5.55Q113.05 4.75 112.42 3.5 111.8 2.25 111.8 0.6L111.8 0.6 111.8 0Q111.8-1 112.45-1.6 113.1-2.2 114.5-2.2L114.5-2.2Q117.3-1.9 117.3 0L117.3 0 117.3 0.55Q117.3 1.1 118.08 1.75 118.85 2.4 120.7 2.4L120.7 2.4 126.95 2.4Q128.8 2.4 129.57 1.35 130.35 0.3 130.35-1L130.35-1 130.35-22.1Q130.35-23.35 129.57-24.38 128.8-25.4 126.95-25.4L126.95-25.4 120.7-25.4Q118.85-25.4 118.08-24.38 117.3-23.35 117.3-22.1L117.3-22.1 117.3-11.55Q117.3-10.3 118.08-9.22 118.85-8.15 120.7-8.15L120.7-8.15 125.9-8.15Q127.7-8.15 127.7-5.85L127.7-5.85Q127.7-4.8 127.28-4.15 126.85-3.5 125.9-3.5L125.9-3.5ZM148.05-21.75L148.05-2.1Q148.05 0.3 145.3 0.3L145.3 0.3Q142.55 0.3 142.55-2.1L142.55-2.1 142.55-22.2Q142.55-24.25 143.2-25.75 143.85-27.25 145.25-28.2L145.25-28.2Q147.9-30.1 150.55-30.1L150.55-30.1 158.6-30.1Q161.15-30.1 163.9-28.2L163.9-28.2Q166.6-26.3 166.6-22.2L166.6-22.2 166.6-2.1Q166.6 0.3 163.85 0.3L163.85 0.3Q161.1 0.3 161.1-2.1L161.1-2.1 161.1-21.75Q161.1-23.05 160.3-24.25L160.3-24.25 160.35-24.2Q159.7-25.4 157.7-25.4L157.7-25.4 151.45-25.4Q149.4-25.4 148.75-24.2L148.75-24.2Q148.05-23.15 148.05-21.75L148.05-21.75ZM194.45-34.65L194.45-2.1Q194.45 0.3 191.5 0.3L191.5 0.3Q188.55 0.3 188.55-2.1L188.55-2.1 188.55-36.7Q188.55-37.85 189.2-38.78 189.85-39.7 191.7-39.7L191.7-39.7 208.7-39.7Q210.5-39.7 210.6-37.2L210.6-37.2Q210.7-34.65 208.7-34.65L208.7-34.65 194.45-34.65ZM207.25-20.65L207.25-20.65Q207.25-19.8 206.93-19.03 206.6-18.25 206.03-17.7 205.45-17.15 204.7-16.82 203.95-16.5 203.05-16.5L203.05-16.5Q201.35-16.5 200.15-17.7 198.95-18.9 198.95-20.65L198.95-20.65Q198.95-22.4 200.15-23.6 201.35-24.8 203.05-24.8L203.05-24.8Q203.95-24.8 204.7-24.48 205.45-24.15 206.03-23.58 206.6-23 206.93-22.25 207.25-21.5 207.25-20.65ZM239.65-28L239.65-7.95Q239.65-5.95 238.95-4.4 238.25-2.85 236.95-1.9L236.95-1.9 237-1.9Q235.75-1.05 234.35-0.53 232.95 0 231.65 0L231.65 0 223.6 0Q222.35 0 220.93-0.53 219.5-1.05 218.25-1.9L218.25-1.9 218.3-1.9Q217-2.85 216.3-4.4 215.6-5.95 215.6-7.95L215.6-7.95 215.6-28Q215.6-30.4 218.35-30.4L218.35-30.4Q221.1-30.4 221.1-28L221.1-28 221.1-8.35Q221.1-6.95 221.8-5.9L221.8-5.9Q222.45-4.7 224.5-4.7L224.5-4.7 230.75-4.7Q232.75-4.7 233.4-5.9L233.4-5.9 233.35-5.85Q234.15-7.05 234.15-8.35L234.15-8.35 234.15-28Q234.15-30.4 236.9-30.4L236.9-30.4Q239.65-30.4 239.65-28L239.65-28ZM256.6-25.4L252.45-25.4 252.45-7.2Q252.45-5.9 253-5.2 253.55-4.5 255.35-4.5L255.35-4.5 256.65-4.5Q258.6-4.5 258.5-2.2L258.5-2.2Q258.5 0.15 256.65 0.15L256.65 0.15 255 0.15Q253.4 0.15 252-0.28 250.6-0.7 249.3-1.5L249.3-1.5 249.3-1.45Q246.85-3.05 246.85-7.15L246.85-7.15 246.85-25.4 244.9-25.4Q243.1-25.4 243-27.75L243-27.75Q243-30.1 244.9-30.1L244.9-30.1 246.85-30.1 246.85-35.45Q246.85-37.85 249.7-37.85L249.7-37.85Q252.45-37.85 252.45-35.45L252.45-35.45 252.45-30.1 256.6-30.1Q258.55-30.1 258.45-27.75L258.45-27.75Q258.45-25.4 256.6-25.4L256.6-25.4ZM286.9-28L286.9-7.95Q286.9-5.95 286.2-4.4 285.5-2.85 284.2-1.9L284.2-1.9 284.25-1.9Q283-1.05 281.6-0.53 280.2 0 278.9 0L278.9 0 270.85 0Q269.6 0 268.18-0.53 266.75-1.05 265.5-1.9L265.5-1.9 265.55-1.9Q264.25-2.85 263.55-4.4 262.85-5.95 262.85-7.95L262.85-7.95 262.85-28Q262.85-30.4 265.6-30.4L265.6-30.4Q268.35-30.4 268.35-28L268.35-28 268.35-8.35Q268.35-6.95 269.05-5.9L269.05-5.9Q269.7-4.7 271.75-4.7L271.75-4.7 278-4.7Q280-4.7 280.65-5.9L280.65-5.9 280.6-5.85Q281.4-7.05 281.4-8.35L281.4-8.35 281.4-28Q281.4-30.4 284.15-30.4L284.15-30.4Q286.9-30.4 286.9-28L286.9-28ZM298.55-22.75L298.55-2.1Q298.55 0.3 295.8 0.3L295.8 0.3Q292.95 0.3 292.95-2.1L292.95-2.1 292.95-22.8Q292.95-26.9 295.4-28.5L295.4-28.5Q297.85-30.1 301.05-30.1L301.05-30.1 306.75-30.1Q308.6-30.1 308.6-27.75L308.6-27.75Q308.7-25.4 306.75-25.4L306.75-25.4 301.45-25.4Q299.65-25.4 299.1-24.7 298.55-24 298.55-22.75L298.55-22.75ZM318.35-22.15L318.35-8Q318.35-6.8 319.13-5.75 319.9-4.7 321.75-4.7L321.75-4.7 328-4.7Q329.85-4.7 330.63-5.63 331.4-6.55 331.4-7.75L331.4-7.75 331.4-8.3Q331.4-10.65 334.15-10.65L334.15-10.65Q336.9-10.65 336.9-8.3L336.9-8.3 336.9-7.7Q336.9-5.6 336.23-4.25 335.55-2.9 334.2-1.9L334.2-1.9Q331.55 0 328.9 0L328.9 0 320.5 0Q317.85 0 315.35-1.9L315.35-1.9Q314.15-2.9 313.5-4.42 312.85-5.95 312.85-7.95L312.85-7.95 312.85-22.2Q312.85-26.25 315.35-28.2L315.35-28.2Q316.6-29.1 317.93-29.63 319.25-30.15 320.5-30.15L320.5-30.15 328.9-30.15Q330.1-30.15 331.55-29.68 333-29.2 334.25-28.4L334.25-28.4Q335.45-27.55 336.18-26.05 336.9-24.55 336.9-22.5L336.9-22.5 336.9-15.75Q336.9-14.6 336.23-13.7 335.55-12.8 333.75-12.8L333.75-12.8 322.95-12.8Q321.15-12.8 321.05-15.15L321.05-15.15Q321.05-17.5 322.95-17.5L322.95-17.5 331.45-17.5 331.4-22.15Q331.4-23.4 330.63-24.43 329.85-25.45 328-25.45L328-25.45 321.75-25.45Q319.9-25.45 319.13-24.43 318.35-23.4 318.35-22.15L318.35-22.15ZM343.35 3.95L343.35 3.95Q344.95 3.1 345.85 2.27 346.75 1.45 346.85 0.05L346.85 0.05Q345.15-0.25 344-1.4 342.85-2.55 342.85-4.1L342.85-4.1Q342.85-5.75 344-6.93 345.15-8.1 346.85-8.1L346.85-8.1Q348.5-8.1 349.65-6.98 350.8-5.85 350.9-4.1L350.9-4.1Q351.15 0.35 349.1 2.3L349.1 2.3Q348.15 3.35 347.13 4.08 346.1 4.8 345.2 5.1L345.2 5.1Q344.45 5.4 343.75 5.4L343.75 5.4Q343.6 5.4 343.38 5.3 343.15 5.2 343 5.1L343 5.1Q342.55 4.4 343.35 3.95ZM383.75-5L390.55-5Q392.4-5 393.15-6.05 393.9-7.1 393.9-8.4L393.9-8.4 393.9-31.3Q393.9-32.55 393.15-33.6 392.4-34.65 390.55-34.65L390.55-34.65 378.85-34.65 378.8-2.05Q378.8-0.95 377.95-0.3 377.1 0.35 375.85 0.35L375.85 0.35Q372.9 0.35 372.9-2.05L372.9-2.05 372.9-36.7Q372.9-38.5 373.82-39.1 374.75-39.7 376.05-39.7L376.05-39.7 391.8-39.7Q393.1-39.7 394.5-39.15 395.9-38.6 397.2-37.75L397.2-37.75 397.15-37.75Q398.45-36.8 399.15-35.27 399.85-33.75 399.85-31.75L399.85-31.75 399.85-8Q399.85-3.95 397.15-1.95L397.15-1.95Q395.85-1 394.47-0.48 393.1 0.05 391.8 0.05L391.8 0.05 383.4 0.05Q382.55 0.05 382.07-0.65 381.6-1.35 381.6-2.5L381.6-2.5Q381.6-5 383.75-5L383.75-5ZM412.45-22.15L412.45-8Q412.45-6.8 413.22-5.75 414-4.7 415.85-4.7L415.85-4.7 422.1-4.7Q423.95-4.7 424.72-5.63 425.5-6.55 425.5-7.75L425.5-7.75 425.5-8.3Q425.5-10.65 428.25-10.65L428.25-10.65Q431-10.65 431-8.3L431-8.3 431-7.7Q431-5.6 430.32-4.25 429.65-2.9 428.3-1.9L428.3-1.9Q425.65 0 423 0L423 0 414.6 0Q411.95 0 409.45-1.9L409.45-1.9Q408.25-2.9 407.6-4.42 406.95-5.95 406.95-7.95L406.95-7.95 406.95-22.2Q406.95-26.25 409.45-28.2L409.45-28.2Q410.7-29.1 412.02-29.63 413.35-30.15 414.6-30.15L414.6-30.15 423-30.15Q424.2-30.15 425.65-29.68 427.1-29.2 428.35-28.4L428.35-28.4Q429.55-27.55 430.27-26.05 431-24.55 431-22.5L431-22.5 431-15.75Q431-14.6 430.32-13.7 429.65-12.8 427.85-12.8L427.85-12.8 417.05-12.8Q415.25-12.8 415.15-15.15L415.15-15.15Q415.15-17.5 417.05-17.5L417.05-17.5 425.55-17.5 425.5-22.15Q425.5-23.4 424.72-24.43 423.95-25.45 422.1-25.45L422.1-25.45 415.85-25.45Q414-25.45 413.22-24.43 412.45-23.4 412.45-22.15L412.45-22.15ZM446.25-17.5L453.6-17.5Q454.85-17.5 456.27-16.93 457.7-16.35 458.95-15.5L458.95-15.5 458.9-15.5Q460.2-14.55 460.9-13.05 461.6-11.55 461.6-9.45L461.6-9.45 461.6-7.95Q461.6-3.85 458.9-1.9L458.9-1.9Q457.6-0.9 456.25-0.45 454.9 0 453.6 0L453.6 0 445.1 0Q443.8 0 442.45-0.45 441.1-0.9 439.8-1.9L439.8-1.9Q437.1-3.8 437.1-7.95L437.1-7.95 437.1-8.55Q437.1-10.7 439.85-10.65L439.85-10.65Q442.65-10.65 442.65-8.55L442.65-8.55 442.65-8Q442.65-6.8 443.4-5.75 444.15-4.7 446.05-4.7L446.05-4.7 452.65-4.7Q454.55-4.7 455.3-5.75 456.05-6.8 456.05-8L456.05-8 456.05-9.4Q456.05-10.05 455.87-10.65 455.7-11.25 455.3-11.73 454.9-12.2 454.25-12.5 453.6-12.8 452.65-12.8L452.65-12.8 445.35-12.8Q442.8-12.8 440-14.6L440-14.6Q437.35-16.3 437.35-20.45L437.35-20.45 437.35-22.15Q437.35-24.15 438.05-25.68 438.75-27.2 440.05-28.15L440.05-28.15 440-28.15Q441.25-29 442.65-29.55 444.05-30.1 445.35-30.1L445.35-30.1 453.35-30.1Q454.65-30.1 456.02-29.55 457.4-29 458.7-28.15L458.7-28.15 458.65-28.15Q459.95-27.2 460.65-25.68 461.35-24.15 461.35-22.15L461.35-22.15 461.35-21.7Q461.35-20.65 460.65-20.18 459.95-19.7 458.6-19.65L458.6-19.65Q455.85-19.6 455.85-21.7L455.85-21.7 455.85-22.1Q455.85-23.35 455.07-24.38 454.3-25.4 452.45-25.4L452.45-25.4 446.25-25.4Q444.4-25.4 443.62-24.38 442.85-23.35 442.85-22.1L442.85-22.1 442.85-20.9Q442.85-19.6 443.62-18.55 444.4-17.5 446.25-17.5L446.25-17.5ZM473.75-27.9L473.75-2.1Q473.75 0.3 471 0.3L471 0.3Q468.2 0.3 468.2-2.1L468.2-2.1 468.2-27.9Q468.2-30.3 471-30.3L471-30.3Q473.75-30.3 473.75-27.9L473.75-27.9ZM474.8-36.6L474.8-36.6Q474.8-35 473.7-33.9 472.6-32.8 471-32.8L471-32.8Q469.4-32.8 468.27-33.9 467.15-35 467.15-36.6L467.15-36.6Q467.15-38.25 468.27-39.35 469.4-40.45 471-40.45L471-40.45Q472.6-40.45 473.7-39.35 474.8-38.25 474.8-36.6ZM494.8-3.5L488.75-3.5Q487.45-3.5 486.07-3.95 484.7-4.4 483.4-5.25L483.4-5.25Q480.7-7 480.7-11.15L480.7-11.15 480.7-22.45Q480.7-24.55 481.42-26.05 482.15-27.55 483.4-28.4L483.4-28.4Q484.7-29.2 486.05-29.65 487.4-30.1 488.7-30.1L488.7-30.1 497.1-30.1Q498.35-30.1 499.7-29.55 501.05-29 502.2-28.15L502.2-28.15Q503.35-27.2 504.05-25.65 504.75-24.1 504.75-22.15L504.75-22.15 504.75-0.95Q504.75 1.15 504.07 2.63 503.4 4.1 502.2 5.1L502.2 5.1Q501.05 6.05 499.72 6.58 498.4 7.1 497.1 7.1L497.1 7.1 488.7 7.1Q486.05 7.1 483.35 5.55L483.35 5.55Q481.95 4.75 481.32 3.5 480.7 2.25 480.7 0.6L480.7 0.6 480.7 0Q480.7-1 481.35-1.6 482-2.2 483.4-2.2L483.4-2.2Q486.2-1.9 486.2 0L486.2 0 486.2 0.55Q486.2 1.1 486.97 1.75 487.75 2.4 489.6 2.4L489.6 2.4 495.85 2.4Q497.7 2.4 498.47 1.35 499.25 0.3 499.25-1L499.25-1 499.25-22.1Q499.25-23.35 498.47-24.38 497.7-25.4 495.85-25.4L495.85-25.4 489.6-25.4Q487.75-25.4 486.97-24.38 486.2-23.35 486.2-22.1L486.2-22.1 486.2-11.55Q486.2-10.3 486.97-9.22 487.75-8.15 489.6-8.15L489.6-8.15 494.8-8.15Q496.6-8.15 496.6-5.85L496.6-5.85Q496.6-4.8 496.17-4.15 495.75-3.5 494.8-3.5L494.8-3.5ZM516.95-21.75L516.95-2.1Q516.95 0.3 514.2 0.3L514.2 0.3Q511.45 0.3 511.45-2.1L511.45-2.1 511.45-22.2Q511.45-24.25 512.1-25.75 512.75-27.25 514.15-28.2L514.15-28.2Q516.8-30.1 519.45-30.1L519.45-30.1 527.5-30.1Q530.05-30.1 532.8-28.2L532.8-28.2Q535.5-26.3 535.5-22.2L535.5-22.2 535.5-2.1Q535.5 0.3 532.75 0.3L532.75 0.3Q530 0.3 530-2.1L530-2.1 530-21.75Q530-23.05 529.2-24.25L529.2-24.25 529.25-24.2Q528.6-25.4 526.6-25.4L526.6-25.4 520.35-25.4Q518.3-25.4 517.65-24.2L517.65-24.2Q516.95-23.15 516.95-21.75L516.95-21.75ZM579.55-10.5L579.55-37.55Q579.55-39.95 582.5-39.95L582.5-39.95Q585.45-39.95 585.45-37.55L585.45-37.55 585.45-3.05Q585.45-1.3 583.6-0.5L583.6-0.5 583.65-0.5Q582.85-0.15 581.95 0.05 581.05 0.25 580.2 0.25L580.2 0.25Q579.55 0.25 578.85 0.13 578.15 0 577.52-0.28 576.9-0.55 576.38-1.03 575.85-1.5 575.55-2.2L575.55-2.2 564.7-29.25 563.35-29.1 563.35-2.1Q563.35 0.3 560.35 0.3L560.35 0.3Q557.4 0.3 557.4-2.1L557.4-2.1 557.4-36.55Q557.4-38.6 559.2-39.3L559.2-39.3Q560.85-39.95 562.7-39.95L562.7-39.95Q564-39.95 565.32-39.43 566.65-38.9 567.35-37.45L567.35-37.45 578.15-10.35 579.55-10.5ZM600.45-30.1L608.45-30.1Q609.75-30.1 611.13-29.55 612.5-29 613.8-28.15L613.8-28.15 613.75-28.15Q615.05-27.2 615.75-25.68 616.45-24.15 616.45-22.15L616.45-22.15 616.45-7.95Q616.45-3.85 613.75-1.9L613.75-1.9Q611.1 0 608.45 0L608.45 0 600.45 0Q599.15 0 597.8-0.45 596.45-0.9 595.15-1.9L595.15-1.9Q592.45-3.8 592.45-7.95L592.45-7.95 592.45-22.15Q592.45-24.15 593.15-25.68 593.85-27.2 595.15-28.15L595.15-28.15 595.1-28.15Q596.35-29 597.75-29.55 599.15-30.1 600.45-30.1L600.45-30.1ZM601.35-4.7L607.55-4.7Q609.4-4.7 610.17-5.75 610.95-6.8 610.95-8L610.95-8 610.95-22.1Q610.95-23.35 610.17-24.38 609.4-25.4 607.55-25.4L607.55-25.4 601.35-25.4Q599.5-25.4 598.73-24.38 597.95-23.35 597.95-22.1L597.95-22.1 597.95-8Q597.95-6.8 598.73-5.75 599.5-4.7 601.35-4.7L601.35-4.7ZM636.8-15.6L633.25-1.55 633.3-1.6Q632.95-0.45 631.95-0.1 630.95 0.25 629.95 0.25L629.95 0.25Q629 0.25 627.97-0.1 626.95-0.45 626.65-1.6L626.65-1.6 626.7-1.55 620.15-27.45Q619.55-29.55 622.1-30.25L622.1-30.25Q624.55-30.9 625.25-28.55L625.25-28.55 625.25-28.6 629.3-12.3 630.65-12.3 634.7-28.6Q634.95-29.65 635.82-29.98 636.7-30.3 637.45-30.3L637.45-30.3Q638.3-30.3 639.12-29.93 639.95-29.55 640.25-28.6L640.25-28.6Q640.7-26.8 641.07-25.25 641.45-23.7 641.8-22.25 642.15-20.8 642.47-19.4 642.8-18 643.2-16.5L643.2-16.5 644.3-12.25 645.65-12.25Q646.65-16.3 647.67-20.43 648.7-24.55 649.7-28.6L649.7-28.6 649.65-28.55Q650.35-30.9 652.8-30.25L652.8-30.25Q655.35-29.65 654.75-27.45L654.75-27.45 648.25-1.55 648.3-1.6Q648-0.45 646.97-0.1 645.95 0.25 644.95 0.25L644.95 0.25Q644 0.25 643-0.1 642-0.45 641.65-1.6L641.65-1.6 641.7-1.55 638.15-15.6 636.8-15.6Z" opacity="1" transform="matrix(1,0,0,1,0,0)" fill="#ffffff" class="undefined-text-1" data-fill-palette-color="quaternary" id="text-1"></path></svg></g></svg></g></svg></g></svg></g><g transform="matrix(1,0,0,1,40.713262274387006,0)"><svg viewBox="0 0 131.7319166783831 131.7319166783831" height="131.7319166783831" width="131.7319166783831"><g><svg xmlns="http://www.w3.org/2000/svg" xmlns:xlink="http://www.w3.org/1999/xlink" version="1.1" baseProfile="tiny" x="0" y="0" viewBox="0 0 100 100" xml:space="preserve" height="131.7319166783831" width="131.7319166783831" class="icon-icon-0" data-fill-palette-color="quaternary" id="icon-0"><path d="M100 52.993v-6.004H53.466v-3.947h45.905c0 0-3.666-37.641-41.991-42.47v34.642h31.661c0 0-5.333-14.49-13.331-17.821v11.992H63.546V8.566c0 0 22.161 3.165 29.327 29.313l-39.407-0.232V0h-6.005v37.611L8.058 37.379c0 0 5.331-23.317 29.826-29.812l-0.333 21.818H25.554V17.061c0 0-9.998 4.996-13.997 18.154H43.05V0.739c0 0-37.326 5.496-42.491 42.303h46.902v3.947H0v6.004h47.461v4.537H0.642c5.166 36.806 42.492 42.302 42.492 42.302V65.357H11.64c3.999 13.158 13.997 18.154 13.997 18.154V71.187h11.998l0.333 21.818C13.473 86.51 8.141 63.192 8.141 63.192l39.32-0.231v36.988h6.005V62.925l39.49-0.231c-7.165 26.147-29.327 29.313-29.327 29.313V71.187h12.165v11.991c7.998-3.33 13.33-17.819 13.33-17.819H57.463V100c38.326-4.829 41.992-42.47 41.992-42.47H53.466v-4.537H100z" fill="#ffffff" data-fill-palette-color="quaternary"></path></svg></g></svg></g><g></g></svg></g></svg></g></svg></g></svg></g><defs></defs></svg><rect width="333.90454557049503" height="333.90454557049503" fill="none" stroke="none" visibility="hidden"></rect></g></svg></g></svg>